<svg width="50" height="50" viewBox="0 0 50 50" fill="none" xmlns="http://www.w3.org/2000/svg">
<g clip-path="url(#clip0_85_19)">
<path d="M25 31.25C28.4518 31.25 31.25 28.4518 31.25 25C31.25 21.5482 28.4518 18.75 25 18.75C21.5482 18.75 18.75 21.5482 18.75 25C18.75 28.4518 21.5482 31.25 25 31.25Z" stroke="black" stroke-width="3" stroke-linecap="round" stroke-linejoin="round"/>
<path d="M40.4168 31.2499C40.1395 31.8783 40.0568 32.5753 40.1793 33.2511C40.3019 33.927 40.624 34.5506 41.1043 35.0416L41.2293 35.1666C41.6167 35.5536 41.9241 36.0131 42.1337 36.5189C42.3434 37.0247 42.4514 37.5669 42.4514 38.1145C42.4514 38.6621 42.3434 39.2043 42.1337 39.7101C41.9241 40.2159 41.6167 40.6754 41.2293 41.0624C40.8424 41.4498 40.3828 41.7571 39.877 41.9668C39.3712 42.1765 38.829 42.2844 38.2814 42.2844C37.7338 42.2844 37.1917 42.1765 36.6858 41.9668C36.18 41.7571 35.7205 41.4498 35.3335 41.0624L35.2085 40.9374C34.7175 40.4571 34.0939 40.1349 33.4181 40.0124C32.7422 39.8899 32.0452 39.9726 31.4168 40.2499C30.8006 40.514 30.2751 40.9525 29.905 41.5114C29.5348 42.0704 29.3362 42.7254 29.3335 43.3958V43.7499C29.3335 44.855 28.8945 45.9148 28.1131 46.6962C27.3317 47.4776 26.2719 47.9166 25.1668 47.9166C24.0618 47.9166 23.002 47.4776 22.2206 46.6962C21.4391 45.9148 21.0002 44.855 21.0002 43.7499V43.5624C20.984 42.8728 20.7608 42.2041 20.3596 41.643C19.9583 41.082 19.3975 40.6547 18.7502 40.4166C18.1218 40.1393 17.4248 40.0565 16.7489 40.1791C16.0731 40.3016 15.4495 40.6238 14.9585 41.1041L14.8335 41.2291C14.4465 41.6165 13.987 41.9238 13.4812 42.1335C12.9753 42.3432 12.4331 42.4511 11.8856 42.4511C11.338 42.4511 10.7958 42.3432 10.29 42.1335C9.78417 41.9238 9.32463 41.6165 8.93766 41.2291C8.55026 40.8421 8.24293 40.3826 8.03325 39.8768C7.82356 39.3709 7.71563 38.8287 7.71563 38.2812C7.71563 37.7336 7.82356 37.1914 8.03325 36.6856C8.24293 36.1798 8.55026 35.7202 8.93766 35.3332L9.06266 35.2082C9.54295 34.7173 9.86513 34.0936 9.98767 33.4178C10.1102 32.742 10.0275 32.045 9.75016 31.4166C9.48607 30.8004 9.04757 30.2749 8.48863 29.9047C7.92969 29.5346 7.27472 29.3359 6.60433 29.3333H6.25016C5.14509 29.3333 4.08529 28.8943 3.30388 28.1129C2.52248 27.3315 2.0835 26.2717 2.0835 25.1666C2.0835 24.0615 2.52248 23.0017 3.30388 22.2203C4.08529 21.4389 5.14509 20.9999 6.25016 20.9999H6.43766C7.12723 20.9838 7.79601 20.7606 8.35704 20.3593C8.91807 19.958 9.3454 19.3973 9.5835 18.7499C9.86082 18.1216 9.94354 17.4245 9.82101 16.7487C9.69847 16.0729 9.37628 15.4492 8.896 14.9583L8.771 14.8333C8.38359 14.4463 8.07626 13.9867 7.86658 13.4809C7.6569 12.9751 7.54897 12.4329 7.54897 11.8853C7.54897 11.3378 7.6569 10.7956 7.86658 10.2898C8.07626 9.78392 8.38359 9.32439 8.771 8.93742C9.15797 8.55002 9.6175 8.24269 10.1233 8.033C10.6292 7.82332 11.1713 7.71539 11.7189 7.71539C12.2665 7.71539 12.8087 7.82332 13.3145 8.033C13.8203 8.24269 14.2799 8.55002 14.6668 8.93742L14.7918 9.06242C15.2828 9.5427 15.9064 9.86489 16.5823 9.98743C17.2581 10.11 17.9551 10.0272 18.5835 9.74992H18.7502C19.3663 9.48583 19.8919 9.04733 20.262 8.48839C20.6322 7.92945 20.8308 7.27447 20.8335 6.60409V6.24992C20.8335 5.14485 21.2725 4.08504 22.0539 3.30364C22.8353 2.52224 23.8951 2.08325 25.0002 2.08325C26.1052 2.08325 27.165 2.52224 27.9464 3.30364C28.7278 4.08504 29.1668 5.14485 29.1668 6.24992V6.43742C29.1695 7.10781 29.3681 7.76278 29.7383 8.32172C30.1085 8.88066 30.634 9.31916 31.2502 9.58325C31.8785 9.86057 32.5756 9.9433 33.2514 9.82076C33.9272 9.69822 34.5508 9.37604 35.0418 8.89575L35.1668 8.77075C35.5538 8.38335 36.0133 8.07602 36.5192 7.86634C37.025 7.65665 37.5672 7.54872 38.1147 7.54872C38.6623 7.54872 39.2045 7.65665 39.7103 7.86634C40.2162 8.07602 40.6757 8.38335 41.0627 8.77075C41.4501 9.15772 41.7574 9.61726 41.9671 10.1231C42.1768 10.6289 42.2847 11.1711 42.2847 11.7187C42.2847 12.2662 42.1768 12.8084 41.9671 13.3143C41.7574 13.8201 41.4501 14.2796 41.0627 14.6666L40.9377 14.7916C40.4574 15.2826 40.1352 15.9062 40.0127 16.582C39.8901 17.2578 39.9728 17.9549 40.2502 18.5833V18.7499C40.5142 19.3661 40.9528 19.8916 41.5117 20.2618C42.0706 20.6319 42.7256 20.8306 43.396 20.8333H43.7502C44.8552 20.8333 45.915 21.2722 46.6964 22.0536C47.4778 22.835 47.9168 23.8948 47.9168 24.9999C47.9168 26.105 47.4778 27.1648 46.6964 27.9462C45.915 28.7276 44.8552 29.1666 43.7502 29.1666H43.5627C42.8923 29.1693 42.2373 29.3679 41.6784 29.7381C41.1194 30.1082 40.6809 30.6337 40.4168 31.2499Z" stroke="black" stroke-width="3" stroke-linecap="round" stroke-linejoin="round"/>
</g>
<defs>
<clipPath id="clip0_85_19">
<rect width="50" height="50" fill="white"/>
</clipPath>
</defs>
</svg>
